<svg version="1.2" xmlns="http://www.w3.org/2000/svg" viewBox="0 0 187 197" width="187" height="197">
	<title>bookmarks</title>
	<defs>
		<linearGradient id="g1" x1="29.7" y1="29.9" x2="65.4" y2="76.1" gradientUnits="userSpaceOnUse">
			<stop offset="0" stop-color="#d75f00"/>
			<stop offset="1" stop-color="#934100"/>
		</linearGradient>
		<linearGradient id="g2" x1="60.2" y1="21" x2="157.3" y2="174.2" gradientUnits="userSpaceOnUse">
			<stop offset="0" stop-color="#fe9038"/>
			<stop offset="1" stop-color="#ff7302"/>
		</linearGradient>
		<linearGradient id="g3" x1="111" y1="125.5" x2="36.7" y2="179.1" gradientUnits="userSpaceOnUse">
			<stop offset="0" stop-color="#fe9038"/>
			<stop offset="1" stop-color="#ff7100"/>
		</linearGradient>
	</defs>
	<style>
		tspan { white-space:pre } 
		.s0 { fill: url(#g1) } 
		.s1 { fill: url(#g2) } 
		.s2 { fill: none;stroke: #ffffff;stroke-width: 8.2 } 
		.s3 { fill: #ffffff } 
		.s4 { fill: none;stroke: #fe9038;stroke-width: 4 } 
		.s5 { fill: #fe9038 } 
		.s6 { fill: url(#g3) } 
	</style>
	<g id="Folder 1">
		<g id="Layer">
			<path id="Layer" class="s0" d="m24.5 39.4c0-10.2 8.6-18.4 19.3-18.4h64.5v55.1h-83.8z"/>
			<path id="Layer" fill-rule="evenodd" class="s1" d="m63.2 39.4c0-10.2-8.7-18.4-19.4-18.4h96.7c10.7 0 19.3 8.2 19.3 18.4v67.3h-96.6zm-19.4-18.4q0 0 0 0zm116 85.8v67.3l-48.3-42.9-48.3 42.9v-67.3z"/>
			<path id="Layer" class="s2" d="m111.9 46.1l7.3 21.2 0.9 2.8h3 23.5l-19 13.1-2.4 1.7 0.9 2.7 7.3 21.2-19.1-13.1-2.4-1.7-2.5 1.7-19 13.1 7.3-21.2 0.9-2.7-2.4-1.7-19-13.1h23.5 3l0.9-2.8z"/>
		</g>
		<path id="Layer" fill-rule="evenodd" class="s3" d="m161.9 135.7q-0.1 0.3-0.4 0.5-0.1 0.2-0.4 0.3c-25.9 16.6-46.9 25.4-68.7 25.5-21.8 0.2-44.1-8.3-72.7-25.5q-0.2-0.1-0.4-0.2-0.3-0.3-0.5-0.6-0.2-0.4-0.2-0.8c0-0.5 0.2-1.1 0.6-1.5q0.2-0.1 0.4-0.3c26-16.6 46.9-25.4 68.8-25.5 21.8-0.1 44.1 8.4 72.7 25.5q0.2 0.1 0.4 0.3 0.3 0.2 0.4 0.6c0.3 0.5 0.3 1.1 0 1.7zm-73.5-24.1c-19.9 0.1-39.3 7.8-63.8 23.2 27.1 15.9 47.8 23.4 67.8 23.2 19.8-0.1 39.2-7.8 63.7-23.1-27.1-15.9-47.8-23.4-67.7-23.3z"/>
		<path id="Layer" class="s3" d="m24.6 134.8c24.5-15.4 43.9-23.1 63.8-23.2 19.9-0.1 40.6 7.4 67.7 23.3-24.5 15.3-43.9 23-63.7 23.1-20 0.2-40.7-7.3-67.8-23.2z"/>
		<path id="Layer" class="s4" d="m92.6 157.1c-12.7 0-23.1-9.8-23.1-21.9 0-12.1 10.4-21.9 23.1-21.9 12.8 0 23.1 9.8 23.1 21.9 0 12.1-10.3 21.9-23.1 21.9z"/>
		<path id="Layer" class="s5" d="m92.6 149c-8 0-14.5-6.2-14.5-13.8 0-7.6 6.5-13.8 14.5-13.8 8 0 14.5 6.2 14.5 13.8 0 7.6-6.5 13.8-14.5 13.8z"/>
		<path id="Layer" fill-rule="evenodd" class="s6" d="m161.9 135.7q-0.1 0.3-0.4 0.5-0.1 0.2-0.4 0.3c-25.9 16.6-46.9 25.4-68.7 25.5-21.8 0.2-44.1-8.3-72.7-25.5q-0.2-0.1-0.4-0.2-0.3-0.3-0.5-0.6-0.2-0.4-0.2-0.8c0-0.5 0.2-1.1 0.6-1.5q0.2-0.1 0.4-0.3c26-16.6 46.9-25.4 68.8-25.5 21.8-0.1 44.1 8.4 72.7 25.5q0.2 0.1 0.4 0.3 0.3 0.2 0.4 0.6c0.3 0.5 0.3 1.1 0 1.7zm-73.5-24.1c-19.9 0.1-39.3 7.8-63.8 23.2 27.1 15.9 47.8 23.4 67.8 23.2 19.8-0.1 39.2-7.8 63.7-23.1-27.1-15.9-47.8-23.4-67.7-23.3z"/>
		<g id="Layer copy 2">
		</g>
	</g>
</svg>