<svg version="1.2" xmlns="http://www.w3.org/2000/svg" viewBox="0 0 1066 118" width="1066" height="118">
	<title>bookmarks</title>
	<defs>
		<linearGradient id="g1" x1="535.6" y1="-1.9" x2="535.6" y2="131.1" gradientUnits="userSpaceOnUse">
			<stop offset="0" stop-color="#fe9038"/>
			<stop offset="1" stop-color="#ff7302"/>
		</linearGradient>
	</defs>
	<style>
		tspan { white-space:pre } 
		.s0 { fill: url(#g1) } 
	</style>
	<g id="Folder 1">
		<g id="Layer copy 2">
			<path id="Layer" fill-rule="evenodd" class="s0" d="m26.1 80.6q2.1-13 3.1-24.9 1.2-11.9 1.2-21.6 0-9.7-1.4-12.8 10.3 2.6 13 8.1 7.4-3.9 15.7-3.9 8.3 0 13.5 4.5 5.3 4.4 5.3 10.8 0 6.3-4.8 11.8-4.8 5.4-13.2 8.1 6.7 1.3 12.3 6.2 5.7 4.8 5.7 11.8 0 10.9-8.5 16.7-8.4 5.8-21.3 5.8-12.9 0-22.7-7.1 0.1-0.7 2.1-13.5zm36.8-37.7q0-4.1-2.7-6.9-2.7-2.8-7.6-2.8-4.9 0-9.5 1.9 0 5.6-2.6 28.1-2.5 22.6-2.5 28.9 4.2 1.7 8.2 1.7 6.9 0 11.3-4.3 4.4-4.3 4.4-10.9 0-6.5-4.6-10.8-4.6-4.4-12.9-4.7l-0.3-3.3q8.9-1.2 13.8-6.2 5-5 5-10.7zm79.1 48.4q-4.3 4.5-10.9 7.2-6.4 2.8-14.2 2.8-7.7 0-13.6-3.3-5.8-3.3-9.2-8.8-7-11-7-25.7 0-14.7 7.6-26.1 7.8-11.5 20.6-14.5 0.8 0.2 1.4 0.7 0.8 0.6 0.9 1.2-12.4 8.6-15.1 23.5 4.1-10.8 12.2-16.9 8.2-6.1 17.6-6.1 9.3 0 15.9 7.7 6.7 7.6 6.7 22.1 0 14.2-5.6 25.6-2.9 6-7.3 10.6zm-1.7-33.6q0-12.8-3.8-18.6-3.6-5.8-10.1-5.8-6.4 0-12.2 5.5-5.7 5.3-8.9 13.4-3.2 8.2-3.2 16.5 0 11.5 3.9 18.8 4.1 7.4 12.2 7.4 6.7 0 11.9-5.6 5.2-5.7 7.7-14 2.5-8.4 2.5-17.6zm79.1 33.6q-4.3 4.5-10.9 7.2-6.5 2.8-14.2 2.8-7.7 0-13.6-3.3-5.8-3.3-9.3-8.8-6.9-11-6.9-25.7 0-14.7 7.6-26.1 7.7-11.5 20.6-14.5 0.8 0.2 1.4 0.7 0.8 0.6 0.9 1.2-12.4 8.6-15.1 23.5 4.1-10.8 12.2-16.9 8.2-6.1 17.6-6.1 9.3 0 15.9 7.7 6.7 7.6 6.7 22.1 0 14.2-5.6 25.6-2.9 6-7.3 10.6zm-1.7-33.6q0-12.8-3.8-18.6-3.6-5.8-10.1-5.8-6.4 0-12.2 5.5-5.7 5.3-9 13.4-3.1 8.2-3.1 16.5 0 11.5 3.9 18.8 4.1 7.4 12.2 7.4 6.7 0 11.9-5.6 5.2-5.7 7.7-14 2.5-8.4 2.5-17.6zm44.8-27.7q0.7 1.4 0.8 2.7 0.2 1.3 0.2 4.7 0 3.4-2.4 19.1l-0.9 5.3q13.1-10.2 22-19.7 9-9.7 12.7-16.4 3.2 5.4 3.2 10.5 0 5-5.5 10.3-5.4 5.4-16.4 13.1 6.7 20.2 15.1 31.3 3.6 4.7 9.1 10.2-3.6 0.9-7.2 0.9-3.5 0-7.3-2.1-3.8-2.1-6.6-5.1-2.7-3-5.6-8.1-4.1-7.4-8.9-19.5-2.7 1.9-5.9 3.9-1.8 13.7-1.8 20.8 0 6.9 1.4 9.9-8.2-2-11.2-5.3-3-3.4-3-9.3 0-3.5 2-17.7 3.6-23.6 3.6-36.5 0-2.8-0.4-7.5 7.4 0.3 10.7 2.2 1.5 0.7 2.3 2.3zm86 51.8q-3.5 1.2-5.5 1.2-5.7 0-6.4-1.5-9.7-23.6-12.8-30.4-0.3 2.5-1.5 11.5-2.6 17.6-2.6 29.3 0 2.8 0.4 7.6-6.8 0-9.2-1.5-2.3-1.6-2.3-4.3 0-0.9 3.2-25 3.3-24 3.3-33.4v-0.5q-2.8-4.3-5.9-7.1 3.5-2.3 8.6-2.3 6.3 0 9.8 5.7 3.5 5.5 13.6 30.9l4.5 10.8q0.5-0.9 1.7-2.5 23.5-33.1 24.2-44.9 0 0.1 2.3 0.2 2.4 0.1 5 1 2.7 0.7 3.8 2.3 1.3 1.6 1.6 3.2 0.3 1.4 0.3 5.1 0 3.6-3.2 24.3-3.2 20.7-3.2 29.1 0 8.2 1.3 11.2-8.2-2-11.2-5.3-3-3.4-3-9.3 0-3.5 2-17.2 2-13.6 2.8-21.8-3.9 6.3-11 17.3-7.1 11-8.5 13.1-1.5 2.1-2.1 3.2zm40.9 13.2q0-1.8 5.6-13.1 5.6-11.2 12.6-25.5 7.1-14.4 9.7-20.9l1.7-4.5q-0.8-1.3-3.8-4.7 3.5-1.1 6-1.1 2.6 0 4.3 0.3 1.7 0.4 3 1.3 1.3 0.9 2.3 1.8 1 0.9 1.9 2.7 0.9 1.8 1.5 3.2 0.5 1.4 1.2 4 0.8 2.5 1.2 4.5 0.4 1.8 1.1 5.2 0.8 3.3 1.6 6.4 0.7 3.1 2.7 11.9 1.9 8.8 3 13.2 1.1 4.3 3.1 9.7 2.2 5.4 4.5 8.5-5.6 2.6-9.1 2.6-3.5 0-5.1-1.7-1.6-1.7-2.8-5.1-1.2-3.5-4.5-18.5-2.3 1.8-7.3 2l-16.5 0.5q-5.9 13.7-8.7 24.3-9.2-3.1-9.2-7zm34-51.8q-1.3 2.9-5.9 12.5-4.6 9.6-7.1 15.2h19.8q-4.5-19.8-6.8-27.7zm47.7 57.4q-5.5 0-7.9-1.9-2.5-1.8-2.5-6.1 0-4.3 3.2-26.1 3.3-21.8 3.3-31 0-9.4-1.3-12.2 9.7 0.7 12.9 7.2 7-3.7 15.7-3.7 8.9 0 14.5 4.9 5.7 4.8 5.7 11.1 0 6.3-4.5 12.6-4.6 6.3-13.5 9.5l1.2 3.6q3.5 10.2 10.1 20.3 6.5 10 10.7 13.7-3.6 0.9-7.2 0.9-3.5 0-7-2.2-3.6-2.1-6-4.7-2.3-2.5-5.2-8.1-2.9-5.6-4.2-8.7-1.2-3.2-2.8-6.9-1.4-3.8-1.5-4.1-0.1-0.2-0.3-0.6-0.2-0.5-0.3-0.8-2.1 0-4.1 0l-0.3-4.2q12.2-0.5 18.2-8.4 3.3-4.4 3.3-9 0-1.7-0.4-3.4-1.6-5.9-7.8-7.4-1.7-0.5-4.8-0.5-3.1 0-8.2 2 0 3.5-2.8 22.8-2.7 19.3-2.7 32.2 0 5.8 0.5 9-3.1 0.2-4 0.2zm72.9-70.6q0.8 1.4 0.9 2.7 0.2 1.3 0.2 4.7 0 3.4-2.4 19.1l-0.9 5.3q13.1-10.2 22-19.7 9-9.7 12.7-16.4 3.2 5.4 3.2 10.5 0 5-5.5 10.3-5.4 5.4-16.5 13.1 6.8 20.2 15.2 31.3 3.6 4.7 9.1 10.2-3.6 0.9-7.2 0.9-3.5 0-7.3-2.1-3.8-2.1-6.6-5.1-2.7-3-5.6-8.1-4.1-7.4-8.9-19.5-2.7 1.9-5.9 3.9-1.8 13.7-1.8 20.8 0 6.9 1.4 9.9-8.2-2-11.2-5.3-3-3.4-3-9.3 0-3.5 2-17.7 3.6-23.6 3.6-36.5 0-2.8-0.4-7.5 7.3 0.3 10.7 2.2 1.5 0.7 2.2 2.3zm89.3 70.6q-5.5 0-7.9-1.9-2.4-1.8-2.4-6.1 0-4.3 3.2-26.1 3.3-21.8 3.3-31 0-9.4-1.4-12.2 9.9 0.7 13 7.3 7.4-3.9 16.3-3.9 8.9 0 14.1 5.4 5.2 5.2 5.2 12.9 0 9.5-7.4 17.2-3.5 3.7-9.2 6-5.6 2.3-12.5 2.3-2.9 0-5.5-0.4l-0.3-3.8q0.4 0 0.8 0 10.9 0 17.4-7.7 4.4-5.5 4.4-11.6 0-8.9-7.6-11.7-6.5-2.3-14.5 0.9v0.2q0 3.5-2.8 22.8-2.7 19.3-2.7 32.2 0 5.8 0.6 9-3.1 0.2-4.1 0.2zm59.5 0q-5.5 0-7.9-1.9-2.4-1.8-2.4-6.1 0-4.3 3.2-26.1 3.2-21.8 3.2-31 0-9.4-1.3-12.2 9.7 0.7 12.9 7.2 7-3.7 15.8-3.7 8.8 0 14.4 4.9 5.7 4.8 5.7 11.1 0 6.3-4.5 12.6-4.5 6.3-13.5 9.5l1.2 3.6q3.5 10.2 10.1 20.3 6.5 10 10.7 13.7-3.6 0.9-7.2 0.9-3.4 0-7-2.2-3.6-2.1-6-4.7-2.3-2.5-5.2-8.1-2.9-5.6-4.1-8.7-1.3-3.2-2.8-6.9-1.5-3.8-1.6-4.1-0.1-0.2-0.3-0.6-0.2-0.5-0.3-0.8-2.1 0-4.1 0l-0.3-4.2q12.2-0.5 18.2-8.4 3.3-4.4 3.3-9 0-1.7-0.4-3.4-1.6-5.9-7.8-7.4-1.7-0.5-4.8-0.5-3.1 0-8.2 2 0 3.5-2.8 22.8-2.7 19.3-2.7 32.2 0 5.8 0.6 9-3.1 0.2-4.1 0.2zm87.3-32.2l-9.2-0.1q-4.3 0-6.5 0.1-1.4 12.2-1.5 20.9 22.6 0 33.7-3.5-0.9 6.8-4.4 10.5-3.5 3.8-8.7 3.8-1.5 0-8.7-0.8-7-0.8-14.9-0.8-7.9 0-15.5 1.6 1.1-4.3 4.7-7.1v-0.3q0-5 2.7-22.6-2.5 0.8-4.2 1.5-0.2-2-0.2-3 0-6.2 5.7-7.8 1.8-12.1 2.3-21.9-3.5-0.1-4.5-1.5-1-1.4-1-5.4 0.3-4.2 0.8-5.4 10.8 1.3 23.8 1.3 13.2 0 25.3-2.2-1.3 9.7-12.3 11.6-6.5 1.2-19.2 1.5-0.1 1.1-2.8 21.3 5.8 0.2 8 0.2 9.2 0 13-3 0.2 1.8 0.2 2.7 0 8.4-6.6 8.4zm54.2 30.6q-0.8 0.3-3.9 0.7-3.1 0.6-5.7 0.6-2.5 0-2.9-1.4-1.7-5.7-5.2-22.2-3.5-16.6-7-30.1-3.5-13.4-6.8-17.8 5.3-2.4 8.4-2.4 3.1 0 4.5 0.6 1.3 0.7 2.6 2.9 1.3 2.2 2.3 5.8 1.4 5.5 3.5 16.4 2.2 10.8 2.5 11.9 3.3 16.3 4.4 22.3 6.3-12.7 13.9-33.8 7.6-21.2 7.6-27.5 10.9 1.7 10.9 6.8 0 3.7-5.5 15.9-5.4 12.1-13.1 28-7.6 15.8-10.5 23.3zm56.2-69q0.8 1.4 0.8 2.7 0.2 1.3 0.2 4.7 0 3.4-3.1 24.1-3.2 20.7-3.2 29.1 0 8.2 1.3 11.2-8.2-2-11.2-5.3-3-3.4-3-9.3 0-3.5 2.1-17.7 3.5-23.6 3.5-36.5 0-2.8-0.4-7.5 7.4 0.3 10.8 2.2 1.4 0.7 2.2 2.3zm47.5 38.4l-9.2-0.1q-4.3 0-6.5 0.1-1.4 12.2-1.5 20.9 22.6 0 33.7-3.5-0.9 6.8-4.4 10.5-3.5 3.8-8.7 3.8-1.5 0-8.7-0.8-7-0.8-14.9-0.8-7.9 0-15.5 1.6 1.1-4.3 4.7-7.1v-0.3q0-5 2.7-22.6-2.4 0.8-4.2 1.5-0.2-2-0.2-3 0-6.2 5.7-7.8 1.8-12.1 2.3-21.9-3.5-0.1-4.5-1.5-1-1.4-1-5.4 0.3-4.2 0.8-5.4 10.8 1.3 23.8 1.3 13.2 0 25.3-2.2-1.3 9.7-12.3 11.6-6.5 1.2-19.2 1.5-0.1 1.1-2.8 21.3 5.8 0.2 8 0.2 9.2 0 13-3 0.2 1.8 0.2 2.7 0 8.4-6.6 8.4zm85.8 30.6q-0.6 0.3-3.7 0.7-3 0.6-5.7 0.6-2.6 0-2.6-1.4-1.3-4.8-6.2-34.7-13.3 28.1-15.8 34.8-0.7 0.3-3.8 0.7-3.1 0.6-5.7 0.6-2.6 0-2.6-1.4-1.4-5.8-4-22.3-2.7-16.5-5.5-30-2.8-13.4-5.7-17.8 5.3-2.4 8.6-2.4 3.5 0 5.1 1.2 1.5 1.2 2.8 5.2 1.3 3.9 2.4 11.1 1 7 1.8 13.4 0.9 6.2 0.9 6.3 0 0.1 0.1 0.9 0.1 0.8 1.4 10 1.5 9.2 1.9 11.8 7.4-15.1 15.3-37.4-3.1-15.2-6.3-20.1 5.3-2.4 8.7-2.4 3.5 0 5 1.2 1.6 1.2 2.8 5.2 1.4 3.9 2.4 11.1 1.1 7 1.9 13.4 0.9 6.2 0.9 6.3 0 0.1 0 0.9 0.1 0.8 1.5 10 1.4 9.2 1.8 11.8 6.8-16.6 13.7-36 7-19.3 7.4-25.3 10.4 2 10.4 6.4 0 6-19.9 47.4-7.7 16.3-9.3 20.2z"/>
		</g>
	</g>
</svg>